<svg width="254" height="50" viewBox="0 0 254 50" fill="none" xmlns="http://www.w3.org/2000/svg">
<path fill-rule="evenodd" clip-rule="evenodd" d="M21.9286 0C9.81776 0 0 9.81792 0 21.9289C0 34.0399 9.81776 43.8579 21.9286 43.8579H26.3143C27.524 43.8544 28.5037 42.8744 28.5068 41.6646V38.3444H21.9279C18.8075 38.348 15.7509 37.4606 13.1174 35.7867C12.7868 35.5766 12.5933 35.206 12.61 34.8145C12.6267 34.4231 12.8509 34.0703 13.1982 33.889C13.5455 33.7077 13.9632 33.7255 14.2938 33.9357C16.5756 35.3861 19.2242 36.1547 21.9279 36.1512H28.5068V32.8917C28.503 31.6825 27.5235 30.7033 26.3143 30.6998H21.9286C17.0843 30.6998 13.1572 26.7726 13.1572 21.9282C13.1572 17.0838 17.0843 13.1567 21.9286 13.1567C26.7729 13.1567 30.7 17.0838 30.7 21.9282V41.6639C30.7031 42.874 31.6832 43.8541 32.8932 43.8572H41.6626C42.873 43.8537 43.8537 42.8737 43.8579 41.6632V21.9296C43.8579 9.81823 34.0398 0 21.9286 0ZM31.0527 9.50614C30.7366 10.0034 30.0774 10.1503 29.5801 9.83439C23.9325 6.25549 16.5582 7.07209 11.8304 11.7999C7.10264 16.5278 6.28605 23.9022 9.8649 29.5499C10.0787 29.8715 10.102 30.2836 9.92564 30.6272C9.74931 30.9708 9.40097 31.1922 9.01502 31.2059C8.62906 31.2197 8.26583 31.0237 8.06545 30.6935C3.95025 24.2029 4.88789 15.726 10.3222 10.2917C15.7564 4.85731 24.2331 3.91965 30.7237 8.03492C31.2201 8.35092 31.3669 9.00911 31.052 9.50614H31.0527ZM37.2786 38.3455C37.8842 38.3455 38.3752 37.8545 38.3752 37.2489V21.8969C38.3788 18.7764 37.4914 15.7198 35.8175 13.0863C35.6074 12.7556 35.2368 12.5622 34.8454 12.5789C34.4539 12.5955 34.1011 12.8197 33.9198 13.1671C33.7386 13.5144 33.7563 13.932 33.9665 14.2627C35.4169 16.5445 36.1855 19.1931 36.182 21.8969V37.2489C36.182 37.8545 36.673 38.3455 37.2786 38.3455Z" fill="white"/>
<path d="M60.312 30.982V11.708H68.178V30.982C68.178 32.914 68.6533 34.4013 69.604 35.444C70.5547 36.4867 71.95 37.008 73.79 37.008C75.63 37.008 77.0407 36.4867 78.022 35.444C79.0033 34.4013 79.494 32.914 79.494 30.982V11.708H87.36V30.982C87.36 33.834 86.6853 36.3027 85.336 38.388C84.0173 40.4427 82.3307 41.9453 80.276 42.896C78.252 43.8467 76.044 44.322 73.652 44.322C69.9107 44.322 66.752 43.1567 64.176 40.826C61.6 38.4953 60.312 35.214 60.312 30.982ZM118.706 21.598C118.706 23.7753 117.924 25.876 116.36 27.9C115.532 28.9427 114.29 29.8013 112.634 30.476C111.009 31.12 109.077 31.442 106.838 31.442H101.962V44H94.0965V11.708H106.838C110.58 11.708 113.493 12.674 115.578 14.606C117.664 16.538 118.706 18.8687 118.706 21.598ZM101.962 25.462H106.838C108.034 25.462 108.97 25.1093 109.644 24.404C110.35 23.6987 110.702 22.7787 110.702 21.644C110.702 20.4787 110.35 19.528 109.644 18.792C108.939 18.056 108.004 17.688 106.838 17.688H101.962V25.462ZM138.104 44.322C133.474 44.322 129.548 42.758 126.328 39.63C123.139 36.502 121.544 32.546 121.544 27.762C121.544 22.978 123.139 19.0373 126.328 15.94C129.548 12.812 133.474 11.248 138.104 11.248C142.766 11.248 146.676 12.812 149.834 15.94C153.024 19.0373 154.618 22.978 154.618 27.762C154.618 30.4607 154.066 32.9447 152.962 35.214C151.889 37.4527 150.402 39.3233 148.5 40.826L155.078 49.29H145.556L141.646 43.954C140.42 44.1993 139.239 44.322 138.104 44.322ZM131.848 21C130.315 22.6867 129.548 24.9407 129.548 27.762C129.548 30.5833 130.315 32.8373 131.848 34.524C133.412 36.2107 135.482 37.054 138.058 37.054C140.665 37.054 142.735 36.2107 144.268 34.524C145.832 32.8373 146.614 30.5833 146.614 27.762C146.614 24.9407 145.832 22.6867 144.268 21C142.735 19.3133 140.665 18.47 138.058 18.47C135.482 18.47 133.412 19.3133 131.848 21ZM180.79 34.524C182.354 32.8373 183.136 30.5833 183.136 27.762C183.136 24.9407 182.354 22.6867 180.79 21C179.257 19.3133 177.187 18.47 174.58 18.47C172.004 18.47 169.934 19.3133 168.37 21C166.837 22.6867 166.07 24.9407 166.07 27.762C166.07 30.5833 166.837 32.8373 168.37 34.524C169.934 36.2107 172.004 37.054 174.58 37.054C177.187 37.054 179.257 36.2107 180.79 34.524ZM162.85 39.63C159.661 36.502 158.066 32.546 158.066 27.762C158.066 22.978 159.661 19.0373 162.85 15.94C166.07 12.812 169.995 11.248 174.626 11.248C179.287 11.248 183.197 12.812 186.356 15.94C189.545 19.0373 191.14 22.978 191.14 27.762C191.14 32.546 189.545 36.502 186.356 39.63C183.167 42.758 179.257 44.322 174.626 44.322C169.995 44.322 166.07 42.758 162.85 39.63ZM204.07 38.02H207.566C210.571 38.02 212.933 37.1 214.65 35.26C216.367 33.42 217.226 30.9513 217.226 27.854C217.226 24.7567 216.367 22.288 214.65 20.448C212.933 18.608 210.571 17.688 207.566 17.688H204.07V38.02ZM207.566 11.708C212.718 11.708 216.95 13.2107 220.262 16.216C223.574 19.1907 225.23 23.07 225.23 27.854C225.23 32.6073 223.574 36.4867 220.262 39.492C216.95 42.4973 212.718 44 207.566 44H196.204V11.708H207.566ZM249.76 11.616V17.596H238.076V24.542H248.38V30.522H238.076V38.02H249.76V44H230.21V11.616H249.76Z" fill="white"/>
</svg>
